<?xml version="1.0" encoding="UTF-8"?>
<svg id="Layer_2" data-name="Layer 2" xmlns="http://www.w3.org/2000/svg" xmlns:xlink="http://www.w3.org/1999/xlink" viewBox="0 0 11.18 10.12">
  <defs>
    <style>
      .cls-1 {
        fill: #d7182a;
      }

      .cls-2, .cls-3 {
        fill: none;
      }

      .cls-3 {
        clip-path: url(#clippath);
      }

      .cls-4 {
        fill: #231f20;
      }
    </style>
    <clipPath id="clippath">
      <rect class="cls-2" width="11.18" height="10.12"/>
    </clipPath>
  </defs>
  <g id="Layer_1-2" data-name="Layer 1">
    <g class="cls-3">
      <path class="cls-4" d="m8.9,9.36c-.09-.04-.65-.41-.85-.57-.14-.11-.36-.3-.45-.38l-.05-.26s-.04-.09-.08-.12c0,0-.69-.43-1.03-.65-.32-.21-1.11-.89-1.11-.89-.06-.07-.27-.28-.4-.35-.06-.03-.43-.3-.79-.56,0,0-.18-.07-.36-.14-.14-.06-.29-.21-.32-.29-.08-.18-.49-.49-.62-.55-.11-.04-.51-.23-.59-.28-.08-.05-.21-.14-.31-.21l-.05-.03c-.11-.08-.95-.63-.95-.63-.08-.05-.19-.03-.24.04-.06.08-.04.19.03.25l.64.51c.09.07.15.15.21.24.04.05.07.1.11.14.07.09.19.28.22.34.04.07.14.11.23.08.03.06.08.15.23.21,0,.02,0,.04.02.06.03.07.06.17.06.18.02.05.06.09.11.11,0,0,.16.06.28.17l.13.11c.12.1.4.33.47.42.01.06.02.14.02.14,0,.05.04.09.08.12.14.1,1.41.99,1.54,1.07.04.02.09.08.13.13.06.07.13.15.23.21.15.09.58.33.7.39.07.03.19.11.29.17.07.04.14.08.17.1l.04.02c.11.07.29.17.5.24.18.06.48.32.53.38.08.1.2.1.28.11.03,0,.07,0,.07,0,.03.02.07.05.11.09.09.08.18.16.28.19.06.03.31.24.5.42.04.04.1.05.15.05.02,0,.04,0,.06-.02.07-.04.1-.11.09-.19-.03-.22-.11-.49-.29-.56"/>
      <path class="cls-4" d="m9.6,7.59c-.19-.1-.37-.29-.41-.34-.03-.04-.11-.1-.25-.08-.03,0-.06.01-.09.02-.14-.14-.44-.43-.56-.55-.07-.07-.19-.15-.31-.24-.16-.11-.35-.25-.43-.34l-.06-.08c-.35-.46-.52-.64-.71-.62-.06,0-.2,0-.3,0-.18-.19-.65-.7-.78-.79-.06-.04-.17-.2-.25-.3-.09-.13-.15-.2-.2-.24-.09-.08-.17-.1-.24-.11-.03,0-.08-.01-.15-.03-.17-.04-.72-.36-.91-.5l-.14-.11c-.18-.15-.39-.31-.54-.39-.1-.05-.3-.18-.48-.3-.14-.09-.26-.17-.33-.21-.12-.07-1.39-1.08-2.16-1.69-.08-.06-.19-.05-.25.02-.06.08-.05.19.02.25.04.04,1.1.97,1.4,1.19.26.19.56.52.7.76.15.27.58.7.6.72.07.07.17.07.24.01.03-.03.12-.08.17-.09.05.03.19.2.27.31.1.12.19.24.26.3.04.03.09.07.15.12.09.07.26.2.27.21.02.08.12.33.12.33.03.09.13.14.23.11,0,0,.02,0,.05-.01.05,0,.07,0,.07,0,.05.07.18.18.38.35.16.14.33.28.43.39.2.21.37.39.65.45.14.03.24.14.31.22l.04.05s.02.03.03.05c.04.07.13.21.35.18.04,0,.14.07.21.12.04.03.08.06.12.09.04.03.12.07.2.12.19.11.44.26.58.38.21.17.39.32.58.4.05.02.1.05.14.09.07.06.16.13.28.11.02,0,.07.05.1.09.02.03.05.05.09.07,0,0,.26.09.42.19.17.11.62.49.63.49.04.03.09.05.14.04.03,0,.07-.02.1-.04.07-.06.08-.16.03-.24-.12-.18-.55-.78-.78-.91"/>
      <path class="cls-4" d="m11.13,7.15s-.8-.83-1.27-1.28c-.25-.23-.67-.59-1.04-.9-.31-.26-.63-.53-.69-.6l-.13-.15c-.13-.15-.29-.33-.41-.44-.09-.08-.16-.16-.23-.24-.05-.06-.11-.12-.16-.18-.09-.09-.4-.29-.85-.58-.18-.11-.34-.22-.44-.28-.09-.06-.21-.15-.34-.24-.29-.2-.61-.43-.8-.55l-.16-.1c-.26-.16-.54-.34-.78-.38-.21-.03-.52-.15-.66-.25-.07-.05-.2-.17-.31-.28-.13-.12-.25-.24-.34-.3-.16-.11-.77-.38-.84-.41-.09-.04-.19,0-.23.08-.04.08-.02.19.06.24.23.15.86.59,1.07.82.11.12.18.2.23.26.08.1.14.16.26.28.06.06.13.12.19.17.13.12.28.25.33.32.1.14.24.16.32.17.05,0,.08,0,.1.03.2.14.35.28.37.34.08.17.23.31.37.43.12.11.29.27.35.34.08.08.16.08.2.08.05,0,.09-.03.12-.05.03.04.08.1.11.16.01.02.03.04.05.06,0,0,.24.2.42.39.05.05.08.09.11.12.1.11.15.17.36.25.13.05.25.14.35.21.07.05.13.1.19.13.07.04.17.12.24.18.05.05.1.08.13.1.07.05.15.05.21.05h.01s0,0,0,.01c0,.25.14.31.26.32.11,0,.29.04.43.11.05.03.11.05.16.07.12.05.25.1.37.22.08.07.15.15.21.22.13.15.23.27.37.28.03,0,.06,0,.08,0,.04,0,.06,0,.16.07.1.07.2.15.3.24.11.09.21.18.3.24.16.11.67.47.67.47.04.03.09.04.13.03.04,0,.08-.03.11-.06.06-.07.06-.17,0-.24"/>
    </g>
    <path class="cls-1" d="m9.74,6.01c-.48-.45-1.6-1.35-1.74-1.51-.14-.16-.37-.44-.53-.58-.16-.14-.27-.29-.4-.42-.13-.13-.99-.65-1.27-.84-.28-.19-.87-.62-1.13-.78-.27-.16-.63-.42-.88-.45-.24-.03-.58-.16-.74-.28-.17-.12-.5-.47-.66-.58-.15-.11-.81-.4-.81-.4,0,0,.83.55,1.1.85.27.3.28.34.48.53.2.19.46.39.55.53.09.13.23.05.37.15.13.09.38.28.43.41.06.13.19.25.32.36.13.11.3.28.37.36.07.07.08-.04.2-.05s.26.27.26.27c0,0,.24.2.44.4.19.2.16.23.41.33.25.09.42.28.57.35.14.08.32.25.38.29.07.04.27-.03.3.1s-.04.24.1.24c.14,0,.34.05.51.13.17.08.36.13.57.31.21.19.37.45.48.45.11,0,.14-.04.34.11.2.14.43.37.59.48.16.11.68.48.68.48,0,0-.79-.83-1.27-1.27m-.69,1.36c-.05-.06-.24.04-.24.04,0,0-.48-.47-.65-.63-.17-.16-.61-.41-.76-.6-.15-.19-.48-.65-.6-.63-.13.02-.41-.01-.41-.01,0,0-.67-.72-.8-.82-.13-.1-.36-.48-.45-.56-.09-.08-.11-.04-.32-.1-.21-.05-.79-.39-.98-.53-.18-.14-.47-.39-.65-.48-.18-.09-.65-.42-.82-.51C2.2,2.44.18.82.18.82c0,0,1.09.96,1.39,1.18.3.22.6.56.75.82.14.25.57.68.57.68,0,0,.23-.19.37-.11.14.08.43.51.56.62.13.11.46.34.48.42.02.07.11.32.11.32,0,0,.22-.07.32.05.1.12.6.51.79.72.19.2.33.36.56.4.23.05.37.23.44.31.08.08.08.19.23.18.15-.02.3.14.44.23.14.09.59.34.8.51.21.17.37.3.54.38.17.07.24.2.35.19s.24.16.24.16c0,0,.29.1.46.22.18.12.64.5.64.5,0,0-.51-.73-.72-.85-.21-.12-.41-.32-.46-.38m-1.11,1.55c-.18-.15-.51-.42-.51-.42l-.06-.32s-.69-.43-1.03-.65c-.34-.22-1.14-.92-1.14-.92,0,0-.24-.25-.35-.31-.12-.06-.78-.55-.78-.55,0,0-.17-.07-.35-.14-.18-.07-.37-.26-.42-.38-.05-.12-.42-.41-.52-.45-.1-.04-.52-.24-.61-.29-.09-.05-.26-.18-.37-.26-.11-.08-.94-.63-.94-.63,0,0,.47.38.64.51.17.13.24.29.34.4.1.12.24.37.24.37,0,0,.13-.06.19.02.06.08.07.16.18.2.12.04.08.08.11.16.03.08.07.18.07.18,0,0,.19.07.33.2.14.13.63.52.65.59.01.07.03.19.03.19,0,0,1.4.98,1.53,1.06.13.07.22.25.36.34.14.09.56.32.68.38.12.06.38.23.47.28.09.05.29.18.51.25.22.07.55.36.61.43.06.07.22.01.32.08.1.07.24.22.35.26.11.04.55.45.55.45,0,0-.06-.37-.18-.42-.12-.05-.71-.45-.9-.6"/>
  </g>
</svg>