<?xml version="1.0" encoding="utf-8"?>
<!-- Generator: Adobe Illustrator 27.7.0, SVG Export Plug-In . SVG Version: 6.00 Build 0)  -->
<svg version="1.1" id="Layer_2_00000120532641214430257240000011677737399726160040_"
	 xmlns="http://www.w3.org/2000/svg" xmlns:xlink="http://www.w3.org/1999/xlink" x="0px" y="0px" viewBox="0 0 23.8 15.2"
	 style="enable-background:new 0 0 23.8 15.2;" xml:space="preserve">
<style type="text/css">
	.st0{clip-path:url(#SVGID_00000181774843410064369120000009498492414277214614_);}
	.st1{opacity:0.58;fill:url(#SVGID_00000153672524727061427090000001682152350135428499_);}
	.st2{fill:#00A2D2;}
</style>
<g>
	<defs>
		<rect id="SVGID_1_" x="1.1" y="-2.2" width="23.8" height="15.2"/>
	</defs>
	<clipPath id="SVGID_00000105400039361804935410000011982401090837684382_">
		<use xlink:href="#SVGID_1_"  style="overflow:visible;"/>
	</clipPath>
	<g style="clip-path:url(#SVGID_00000105400039361804935410000011982401090837684382_);">
		<g>
			<defs>
				<rect id="SVGID_00000013167145653718398300000013456760443611299719_" x="0.9" y="-2.4" width="24.3" height="15.9"/>
			</defs>
			<clipPath id="SVGID_00000100382637076635685610000001203093915297682066_">
				<use xlink:href="#SVGID_00000013167145653718398300000013456760443611299719_"  style="overflow:visible;"/>
			</clipPath>
		</g>
	</g>
</g>
<radialGradient id="SVGID_00000073708327551836283220000017379683442474692789_" cx="11.88" cy="7.1721" r="8.931" fx="17.8295" fy="13.833" gradientTransform="matrix(1 0 0 1.0743 0 -7.978110e-02)" gradientUnits="userSpaceOnUse">
	<stop  offset="0.3799" style="stop-color:#000000"/>
	<stop  offset="1" style="stop-color:#000000"/>
</radialGradient>
<path style="opacity:0.58;fill:url(#SVGID_00000073708327551836283220000017379683442474692789_);" d="M21.2,4.8h-0.6L22,7.7
	l-1.3,2.7h0.6l1.4-2.7 M17.3,3l2.1,4.7l-2.1,4.7l0.1,0.5h0.1l2.8-5.2l-2.8-5.2L17.3,3L17.3,3z M2.6,4.8L1,7.7l1.4,2.7h0.6L1.7,7.7
	l1.4-2.9C3.2,4.8,2.6,4.8,2.6,4.8z M6.2,2.4L3.4,7.7l2.8,5.2h0.1l0.1-0.5l-2-4.7l2-4.7L6.2,2.4L6.2,2.4z M11.7,6.4
	c-0.7,0-1.3,0.6-1.3,1.4c0,0.8,0.6,1.4,1.3,1.4c0.7,0,1.3-0.6,1.3-1.4C13,7,12.4,6.4,11.7,6.4 M14.7,14.6l2.3-1.2l-3.2-3.8
	L14.7,14.6L14.7,14.6z M8.9,14.6l0.9-5l-3.2,3.8L8.9,14.6L8.9,14.6z M14.7,0.7l-0.9,5L17,1.9L14.7,0.7L14.7,0.7z M6.6,1.9l3.2,3.8
	l-0.9-5L6.6,1.9L6.6,1.9z"/>
<path class="st2" d="M20.9,5h-0.6l1.4,2.6l-1.3,2.4H21l1.4-2.4 M17.2,3.4l2,4.3l-2,4.3l0.1,0.5h0.1l2.7-4.8l-2.7-4.8L17.2,3.4
	L17.2,3.4z M2.8,5L1.3,7.7l1.4,2.4h0.6L2,7.7L3.4,5C3.4,5,2.8,5,2.8,5z M6.3,2.9L3.6,7.7l2.7,4.8h0.1l0.1-0.5L4.7,7.6l1.9-4.3
	L6.3,2.9L6.3,2.9z M11.7,6.5c-0.7,0-1.3,0.6-1.3,1.3s0.6,1.3,1.3,1.3S13,8.5,13,7.8S12.4,6.5,11.7,6.5 M14.7,13.9l2.2-1.1l-3.1-3.4
	L14.7,13.9L14.7,13.9z M9,13.9l0.9-4.5l-3.1,3.4L9,13.9L9,13.9z M14.6,1.3l-0.9,4.5l3.1-3.4L14.6,1.3L14.6,1.3z M6.8,2.4l3.1,3.4
	L9,1.3L6.8,2.4L6.8,2.4z"/>
</svg>
