<?xml version="1.0" encoding="UTF-8"?>
<svg id="Layer_2" data-name="Layer 2" xmlns="http://www.w3.org/2000/svg" xmlns:xlink="http://www.w3.org/1999/xlink" viewBox="0 0 14.54 14.03">
  <defs>
    <style>
      .cls-1 {
        fill: #004e33;
      }

      .cls-2 {
        fill: #39b54a;
      }

      .cls-3, .cls-4 {
        fill: none;
      }

      .cls-4 {
        clip-path: url(#clippath);
      }
    </style>
    <clipPath id="clippath">
      <rect class="cls-3" width="14.54" height="14.03"/>
    </clipPath>
  </defs>
  <g id="Layer_1-2" data-name="Layer 1">
    <g class="cls-4">
      <path class="cls-1" d="m13.4,3.65l-2.61.41-1.2-.37s-1.22-1.8-1.17-1.8-.85-.41-.8-.42c-.05,0-1.37.13-1.37.13l-.98,1.18-.23.1s-2.07-.24-3-.18h-.02s-.08,0-.12.01l-1.62.2-.28,1.12.43.82.06.77-.34,1.05.05.77,1.12.55s.5,1.01.5,1.06.1,1.23.1,1.23l.43.39,1.11.16.42,1.22.98.37,1.12-.17,1.23-.11s1.25-.77,1.29-.77c.03,0,1.33-1.2,1.33-1.2l.6-.05,1.52.15.49-.2.58.06h.52s1.03-.93.99-3.15c-.05-2.22-.62-3.43-.62-3.43"/>
    </g>
    <path class="cls-2" d="m11.68,7.75l-.29-.24-.1-1.29-.46.9-.18-2.09s-.42-.43-.39-.45c0,0,1.81-.26,3.3-.47.1.32.19.65.26.98l-1.54.33.47.22,1.15.02c.03.27.05.55.05.84,0,.41-.03.81-.1,1.2-1.09.02-2.17.05-2.17.05m1.78,1.42l-.78-.09-.27-.87,1.34-.02c-.08.33-.18.66-.3.98m-6.93-2.67l-.34-.71-.37-2.27-.83-.26.56-.04,1-1.19,1-.07s.6.99.6,1.04c0,.05-1.38.22-1.38.22l1.51.12.07,2.86-.16.39-1.66-.09Zm-4.37,1.49s1.3-.08,1.34-.14c.03-.07,1.72-.45,1.72-.5,0-.05.67.63.66.62l-.06.72-1.13.56-.67.33.11.31v.03s.32.16.35.2c0,0,1.96-1.33,1.97-1.38.02-.05.44.03.44.03l.42.61.02.7-1.89,1.73-.36.08-.79-.15-.21-.86-.13-.54-1.28-.15-.23-.2-.03-1.04-.4-.95h.14Zm-1.23-3.22l-.26-.79.2-.59,1.72-.23,2.04.39.15.51.09.74-.16.47-2.61-.02-.57-.15v.3s.25.23.25.23l2.84.08.33.08s0,.88.04.93c.04.05,0,.36,0,.36,0,0-1.56.18-2.33.26l-.97.12-.88-.45-.05-.3.32-1-.11-.95Z"/>
    <polyline class="cls-2" points="8.06 0 10.39 2.93 11.25 2.84"/>
    <polyline class="cls-2" points="9.7 0 12.02 2.93 12.89 2.84"/>
    <polyline class="cls-2" points="8.06 14.03 10.39 11.11 11.25 11.19"/>
    <polyline class="cls-2" points="9.7 14.03 12.02 11.11 12.89 11.19"/>
  </g>
</svg>