<?xml version="1.0" encoding="UTF-8"?>
<svg id="Layer_2" data-name="Layer 2" xmlns="http://www.w3.org/2000/svg" viewBox="0 0 10.89 13.26">
  <defs>
    <style>
      .cls-1 {
        fill: #a7a9ac;
      }

      .cls-2 {
        fill: #231f20;
      }
    </style>
  </defs>
  <g id="Layer_1-2" data-name="Layer 1">
    <polyline class="cls-1" points="10.89 0 0 0 0 13.26 10.89 13.26"/>
    <path class="cls-2" d="m9.81,1.17l-1.39.9h-1.14s-.82-1.03-.82-1.03h3.35m0,1.25l-1.3.9h-1.85c-.14-1-1-1.77-2.04-1.77-.6,0-1.14.26-1.52.68l-1-1.04h3.86s1.12,1.4,1.12,1.4h1.44s1.28-.83,1.28-.83v.66Zm-6.43,1.21c0-.68.55-1.23,1.23-1.24.68,0,1.23.55,1.24,1.23,0,.68-.55,1.23-1.23,1.24-.68,0-1.23-.55-1.23-1.23m-1.55.2c.24,0,.43.19.43.43s-.19.43-.43.43c-.24,0-.43-.19-.43-.43,0-.24.19-.43.42-.43m.71,4.22c0-.39.31-.7.7-.7.39,0,.7.31.7.7,0,.39-.31.7-.7.7-.39,0-.7-.31-.71-.7m3.44-.72c0,.27-.22.49-.49.5-.27,0-.49-.22-.49-.49,0-.27.22-.49.49-.49.27,0,.5.22.5.49m3.84-2.58h-1.65s-.59,1.08-.59,1.08c-.09-.03-.18-.05-.28-.04-.5,0-.9.4-.9.9,0,.41.28.76.67.86v2.39s-.43,0-.43,0v-1.53s-.47-.51-.47-.51c.13-.15.21-.35.21-.57,0-.49-.4-.88-.88-.88-.49,0-.88.39-.87.88,0,.48.39.88.88.88.15,0,.3-.04.42-.11l-.05.04.38.41v1.38s-5.18.01-5.18.01v-4.2s.51,0,.51,0l.75,1.3c-.26.25-.43.6-.43.99,0,.74.61,1.35,1.35,1.35.74,0,1.35-.61,1.35-1.35,0-.74-.61-1.35-1.35-1.35-.17,0-.33.04-.48.09l-.9-1.54h-.82s0-3.03,0-3.03l.62.64v.75c-.29.08-.51.35-.51.66,0,.38.31.68.69.68.38,0,.69-.31.68-.69,0-.35-.26-.63-.6-.68v-.83s-.88-.91-.88-.91v-.65s.18,0,.18,0l1.53,1.59c-.11.25-.18.54-.18.83,0,1.14.93,2.05,2.06,2.05,1.01,0,1.85-.74,2.02-1.7h2.06s1.1-.76,1.1-.76v1.55Zm0,1.26h-.6s-.93,1.78-.93,1.78v2.15s-.71,0-.71,0v-2.4c.35-.12.62-.46.61-.86,0-.21-.07-.4-.19-.55l.47-.86h1.35s0,.74,0,.74Zm0,3.92h-1.15s0-2.05,0-2.05l.77-1.49h.37s0,3.54,0,3.54Zm-2.52-2.84c-.22,0-.4-.18-.4-.4,0-.22.18-.4.4-.4.22,0,.4.18.4.4,0,.22-.18.4-.4.4M10.45.38H.4v12.5h.68s0-2.41,0-2.41h1.69s0,1.24,0,1.24h-.52s0,1.17,0,1.17h1.12s0-2.41,0-2.41h1.76s0,1.24,0,1.24h-.48s0,1.16,0,1.16h1.07s0-2.41,0-2.41h1.76s0,1.24,0,1.24h-.44v1.17s1.04,0,1.04,0v-2.41s1.77,0,1.77,0v1.25s-.42,0-.42,0v1.16s1.04,0,1.04,0V.38Z"/>
  </g>
</svg>