<?xml version="1.0" encoding="UTF-8"?>
<svg id="Layer_2" data-name="Layer 2" xmlns="http://www.w3.org/2000/svg" xmlns:xlink="http://www.w3.org/1999/xlink" viewBox="0 0 20.16 20.16">
  <defs>
    <style>
      .cls-1 {
        fill: #d71635;
      }

      .cls-2, .cls-3 {
        fill: none;
      }

      .cls-3 {
        clip-path: url(#clippath);
      }

      .cls-4 {
        fill: #231f20;
      }
    </style>
    <clipPath id="clippath">
      <rect class="cls-2" width="20.16" height="20.16"/>
    </clipPath>
  </defs>
  <g id="Layer_1-2" data-name="Layer 1">
    <path class="cls-1" d="m10.04,2.02C5.59,2.02,1.98,5.63,1.98,10.08s3.61,8.06,8.06,8.06,8.06-3.61,8.06-8.06S14.49,2.02,10.04,2.02"/>
    <g class="cls-3">
      <path class="cls-4" d="m15.71,12.74l-2.66-2.66,2.66-2.66c.38.81.59,1.71.59,2.66s-.21,1.85-.59,2.66m-5.67-5.67l-2.66-2.66c.81-.38,1.71-.6,2.66-.6s1.85.22,2.67.6l-2.67,2.66Zm0,9.27c-.95,0-1.85-.21-2.66-.6l2.66-2.66,2.67,2.66c-.81.38-1.71.6-2.67.6m-5.67-3.6c-.38-.81-.6-1.71-.6-2.66s.21-1.85.6-2.66l2.66,2.66-2.66,2.66ZM10.08,0C4.51,0,0,4.51,0,10.08s4.51,10.08,10.08,10.08,10.08-4.51,10.08-10.08S15.65,0,10.08,0"/>
    </g>
  </g>
</svg>