<?xml version="1.0" encoding="UTF-8"?>
<svg id="Layer_2" data-name="Layer 2" xmlns="http://www.w3.org/2000/svg" xmlns:xlink="http://www.w3.org/1999/xlink" viewBox="0 0 18.62 19.43">
  <defs>
    <style>
      .cls-1 {
        stroke: #010101;
        stroke-miterlimit: 10;
        stroke-width: .91px;
      }

      .cls-1, .cls-2, .cls-3 {
        fill: none;
      }

      .cls-3 {
        clip-path: url(#clippath);
      }

      .cls-4 {
        fill: url(#linear-gradient);
      }

      .cls-5 {
        fill: #010101;
      }
    </style>
    <clipPath id="clippath">
      <rect class="cls-2" width="18.62" height="19.43"/>
    </clipPath>
    <linearGradient id="linear-gradient" x1="17.68" y1=".28" x2="1.37" y2="19.11" gradientUnits="userSpaceOnUse">
      <stop offset=".27" stop-color="#f8e554"/>
      <stop offset=".86" stop-color="#df2128"/>
    </linearGradient>
  </defs>
  <g id="Layer_1-2" data-name="Layer 1">
    <path class="cls-5" d="m9.34,17.47c-1.23,0-2.39-.29-3.41-.82h0s0,0,0,0c.28-.87.69-1.62,1.06-2.41h2.61v1.59c.98.16,2.24.04,3.35.08,0-3.98,0-8.49.02-12.56,2.33,1.28,3.9,3.75,3.9,6.59,0,4.15-3.37,7.52-7.52,7.52m-.55-15.03c-.14.32-.33.67-.38.78-1.6,3.54-3.43,7.65-5.1,11.23-.94-1.26-1.5-2.82-1.5-4.51,0-3.97,3.08-7.22,6.97-7.5m.81,9.02h-1.35c.37-1.01.89-1.89,1.26-2.9.19.81.03,1.96.08,2.9M12.95,1.87V.45h-3.27c-.05.11-.15.39-.26.64-.04,0-.07,0-.11,0C4.42,1.09.45,5.06.45,9.95c0,2.28.86,4.36,2.28,5.93-.04.09-.07.15-.07.16-.49.94-.92,1.93-1.35,2.94h3.51c.12-.26.32-.76.5-1.11,1.2.6,2.55.95,3.99.95,4.89,0,8.86-3.96,8.86-8.86,0-3.59-2.15-6.69-5.22-8.08"/>
    <g class="cls-3">
      <path class="cls-1" d="m12.95,1.87V.45h-3.27c-.05.11-.15.39-.26.64-.04,0-.07,0-.11,0C4.42,1.09.45,5.06.45,9.95c0,2.28.86,4.36,2.28,5.93-.04.09-.07.15-.07.16-.49.94-.92,1.93-1.35,2.94h3.51c.12-.26.32-.76.5-1.11,1.2.6,2.55.95,3.99.95,4.89,0,8.86-3.96,8.86-8.86,0-3.59-2.15-6.69-5.22-8.08Z"/>
      <path class="cls-1" d="m9.6,11.47h-1.35c.37-1.01.89-1.89,1.26-2.9.19.81.03,1.96.08,2.9Z"/>
      <path class="cls-1" d="m8.79,2.45c-.14.32-.33.67-.38.78-1.6,3.54-3.43,7.65-5.1,11.23-.94-1.26-1.5-2.82-1.5-4.51,0-3.97,3.08-7.22,6.97-7.5Z"/>
      <path class="cls-1" d="m9.34,17.47c-1.23,0-2.39-.29-3.41-.82h0s0,0,0,0c.28-.87.69-1.62,1.06-2.41h2.61v1.59c.98.16,2.24.04,3.35.08,0-3.98,0-8.49.02-12.56,2.33,1.28,3.9,3.75,3.9,6.6,0,4.15-3.37,7.52-7.52,7.52Z"/>
    </g>
    <path class="cls-4" d="m9.34,17.47c-1.23,0-2.39-.29-3.41-.82h0s0,0,0,0c.28-.87.69-1.62,1.06-2.41h2.61v1.59c.98.16,2.24.04,3.35.08,0-3.98,0-8.49.02-12.56,2.33,1.28,3.9,3.75,3.9,6.59,0,4.15-3.37,7.52-7.52,7.52m-.55-15.03c-.14.32-.33.67-.38.78-1.6,3.54-3.43,7.65-5.1,11.23-.94-1.26-1.5-2.82-1.5-4.51,0-3.97,3.08-7.22,6.97-7.5m.81,9.02h-1.35c.37-1.01.89-1.89,1.26-2.9.19.81.03,1.96.08,2.9M12.95,1.87V.45h-3.27c-.05.11-.15.39-.26.64-.04,0-.07,0-.11,0C4.42,1.09.45,5.06.45,9.95c0,2.28.86,4.36,2.28,5.93-.04.09-.07.15-.07.16-.49.94-.92,1.93-1.35,2.94h3.51c.12-.26.32-.76.5-1.11,1.2.6,2.55.95,3.99.95,4.89,0,8.86-3.96,8.86-8.86,0-3.59-2.15-6.69-5.22-8.08"/>
  </g>
</svg>