<?xml version="1.0" encoding="UTF-8"?>
<svg id="Layer_2" data-name="Layer 2" xmlns="http://www.w3.org/2000/svg" xmlns:xlink="http://www.w3.org/1999/xlink" viewBox="0 0 14.13 14.4">
  <defs>
    <style>
      .cls-1, .cls-2 {
        fill: none;
      }

      .cls-3 {
        fill: #af2b39;
      }

      .cls-2 {
        clip-path: url(#clippath);
      }
    </style>
    <clipPath id="clippath">
      <rect class="cls-1" x="0" y="0" width="14.13" height="14.4"/>
    </clipPath>
  </defs>
  <g id="Layer_1-2" data-name="Layer 1">
    <g class="cls-2">
      <path class="cls-3" d="m5.54,8.89l.91.85.03-4.16-4.07.25.84.81-1.71,1.76c-.26-.29-.43-.92-.46-1.14-.14-1.72.51-3.46,1.76-4.83C4.09,1.06,5.78.33,7.5.25c0,0-2.76-1.17-5.39,1.51-2.98,3.04-2.66,8.02.12,10.53"/>
      <path class="cls-3" d="m8.59,5.51l-.91-.85-.03,4.16,4.07-.25-.84-.81,1.72-1.76c.26.29.43.92.45,1.14.14,1.72-.5,3.47-1.76,4.83-1.25,1.37-2.94,2.1-4.66,2.17,0,0,2.77,1.17,5.39-1.5,2.98-3.04,2.66-8.02-.12-10.53"/>
    </g>
  </g>
</svg>