<?xml version="1.0" encoding="UTF-8"?>
<svg id="Layer_2" data-name="Layer 2" xmlns="http://www.w3.org/2000/svg" viewBox="0 0 20.16 15.3">
  <defs>
    <style>
      .cls-1 {
        fill: #ffc50a;
      }

      .cls-2 {
        stroke-width: .31px;
      }

      .cls-2, .cls-3 {
        fill: none;
        stroke: #231f20;
        stroke-miterlimit: 10;
      }

      .cls-3 {
        stroke-width: .3px;
      }

      .cls-4 {
        fill: #d71635;
      }
    </style>
  </defs>
  <g id="Layer_2-2" data-name="Layer 2">
    <path class="cls-4" d="m3.39,7.41C3.39,3.87,6.26,1,9.8,1s6.41,2.87,6.41,6.41-2.87,6.41-6.41,6.41-6.41-2.87-6.41-6.41"/>
    <path class="cls-2" d="m3.25,7.41C3.25,3.79,6.18.86,9.8.86s6.54,2.93,6.54,6.54-2.93,6.55-6.54,6.55-6.54-2.93-6.54-6.55Z"/>
    <polygon class="cls-1" points=".61 15.02 7.16 7.43 .88 .28 6.75 .28 9.96 4.33 13.35 .28 18.99 .28 12.83 7.26 19.55 15.02 13.65 15.02 9.96 10.45 6.23 15.02 .61 15.02"/>
    <polygon class="cls-3" points=".33 15.15 7.07 7.42 .61 .15 6.65 .15 9.96 4.27 13.44 .15 19.25 .15 12.91 7.25 19.83 15.15 13.76 15.15 9.96 10.5 6.12 15.15 .33 15.15"/>
  </g>
</svg>